<svg xmlns="http://www.w3.org/2000/svg" width="86" height="76.899" viewBox="0 0 86 76.899">
    <g id="prefix__Group_181" data-name="Group 181" transform="translate(-239.002 -312.562)">
        <g id="prefix__Group_336" data-name="Group 336">
            <g id="prefix__Group_337" data-name="Group 337" transform="translate(239.002 312.562)">
                <g id="prefix__Group_150">
                    <g id="prefix__Path_264">
                        <path id="prefix__Path_288" d="M82.65 0a3.117 3.117 0 0 1 3.17 4.038L71.964 60.584a5.588 5.588 0 0 1-5.151 4.042h-7.607a5.67 5.67 0 0 1-5.2-4.027L44 21.789c-.571-2.216-1.51-2.217-2.085 0L31.833 60.6a5.684 5.684 0 0 1-5.207 4.027h-7.515a5.587 5.587 0 0 1-5.151-4.042L.1 4.039A3.119 3.119 0 0 1 3.275 0h5.683a5.285 5.285 0 0 1 4.97 4.085L22.2 45.988c.443 2.246 1.27 2.268 1.838.051L34.79 4.028A5.659 5.659 0 0 1 39.983 0h5.867a5.67 5.67 0 0 1 5.2 4.031l10.83 42.013c.571 2.216 1.4 2.193 1.845-.053L72 4.082A5.286 5.286 0 0 1 76.968 0z" data-name="Path 288" transform="translate(.037 .009)" style="fill:#414141"/>
                    </g>
                </g>
                <g id="prefix__Path_269" transform="translate(15.019 68.678)">
                    <path id="prefix__Path_295" d="M171 119.014h-.827a75.475 75.475 0 0 1-22.421-3.616l-.195-.064c-1.945-.646-3.244-1.177-3.846-1.436-.332-.143-.483-.214-.483-.214a1 1 0 0 1-.477-1.312.963.963 0 0 1 1.287-.483c.014.006.147.068.425.188.574.247 1.816.754 3.688 1.376l.185.061a73.562 73.562 0 0 0 21.852 3.523c.573.007 1.147.006 1.756 0a72.062 72.062 0 0 0 25.984-5.17.965.965 0 0 1 1.258.558 1 1 0 0 1-.548 1.281 73.966 73.966 0 0 1-26.667 5.313z" data-name="Path 295" transform="translate(-142.663 -111.793)" style="stroke:#414141;stroke-width:2px;fill:#414141"/>
                </g>
            </g>
        </g>
    </g>
</svg>
